# xmcd
#
# Track frame offsets: 
#        300
#        17853
#        37184
#        52082
#        71145
#        83071
#
# Disc length: 1300 seconds
#
# Revision: 0
# Processed by: cddbd v1.5.2PL0 Copyright (c) Steve Scherf et al.
# Submitted via: ExactAudioCopy v0.99pb4
#
DISCID=54051006
DTITLE=Kasa Chorych - Single (1980-1982)
DYEAR=2009
DGENRE=Blues
TTITLE0=Blues Chorego (1980)
TTITLE1=Szalona Baska (1980)
TTITLE2=Zgnila Porzeczka (1981)
TTITLE3=Blues Corek Naszych (1981)
TTITLE4=Przed Nami Drzwi Zamkniete (1982)
TTITLE5=Pieniadze To Nie Wszystko (1982)
EXTD=
EXTT0=
EXTT1=
EXTT2=
EXTT3=
EXTT4=
EXTT5=
PLAYORDER=
